<svg width="73" height="70" viewBox="0 0 73 70" fill="none" xmlns="http://www.w3.org/2000/svg">
<path d="M57.6145 35.94V31.7378H65.0237V27.2038H69.4471V29.4155C69.4471 29.8578 69.7788 30.3002 70.3318 30.3002C70.7741 30.3002 71.1058 29.9684 71.1058 29.4155V23.4439C71.1058 23.0016 70.7741 22.5592 70.3318 22.5592C69.8894 22.5592 69.4471 22.891 69.4471 23.4439V25.6556H65.0237V21.1216H51.2006V7.96209C51.2006 7.74092 51.09 7.51975 50.9795 7.40916L43.9021 0.221169C43.7915 0.110585 43.7915 0.110584 43.6809 0.110584C43.5703 0.110584 43.4597 0 43.3491 0H25.3239C23.0016 0 21.1216 1.87994 21.1216 4.20221V21.0111H7.29858V25.545H2.8752V23.3333C2.8752 22.891 2.54344 22.4487 1.99052 22.4487C1.54818 22.4487 1.21643 22.7804 1.21643 23.3333V29.3049C1.21643 29.7472 1.54818 30.1896 1.99052 30.1896C2.43286 30.1896 2.8752 29.8578 2.8752 29.3049V27.0932H7.29858V31.6272H14.7077V35.8294L0 57.9463V66.5719C0 68.4518 1.54818 70 3.42812 70H68.8942C70.7741 70 72.3223 68.4518 72.3223 66.5719V57.9463L57.6145 35.94ZM44.1232 2.76461L48.436 7.07741H45.5608C44.7867 7.07741 44.1232 6.4139 44.1232 5.63981V2.76461ZM22.7804 4.20221C22.7804 2.76461 23.8863 1.65877 25.3239 1.65877H42.4645V5.75039C42.4645 7.40916 43.7915 8.84676 45.5608 8.84676H49.6525V21.0111H22.7804V4.20221ZM8.95735 30.079V22.5592H63.3649V30.079H8.95735ZM16.3665 36.3823V31.7378H55.9558V36.3823L70.6635 58.4992V62.3697H1.65877V58.4992L16.3665 36.3823ZM68.8942 68.4518H3.42812C2.43286 68.4518 1.65877 67.6777 1.65877 66.6825V64.139H70.7741V66.6825C70.7741 67.6777 69.8894 68.4518 68.8942 68.4518Z" fill="url(#paint0_linear)"/>
<path d="M48.8784 25.5452H47.2196V27.2039H48.8784V25.5452Z" fill="url(#paint1_linear)"/>
<path d="M34.2812 25.5452H32.6224V27.2039H34.2812V25.5452Z" fill="url(#paint2_linear)"/>
<path d="M39.1468 25.5452H37.488V27.2039H39.1468V25.5452Z" fill="url(#paint3_linear)"/>
<path d="M29.4155 25.5452H27.7567V27.2039H29.4155V25.5452Z" fill="url(#paint4_linear)"/>
<path d="M44.0126 25.5452H42.3539V27.2039H44.0126V25.5452Z" fill="url(#paint5_linear)"/>
<path d="M24.5498 25.5452H22.891V27.2039H24.5498V25.5452Z" fill="url(#paint6_linear)"/>
<path d="M45.5608 11.8325H26.7615V13.4913H45.5608V11.8325Z" fill="url(#paint7_linear)"/>
<path d="M42.4645 16.3665H29.7473V18.0252H42.4645V16.3665Z" fill="url(#paint8_linear)"/>
<path d="M21.4535 43.7914C23.0016 43.7914 24.2181 42.575 24.2181 41.0268C24.2181 39.4786 23.0016 38.2622 21.4535 38.2622C19.9053 38.2622 18.6888 39.4786 18.6888 41.0268C18.6888 42.4644 19.9053 43.7914 21.4535 43.7914ZM21.4535 39.8104C22.117 39.8104 22.5593 40.3633 22.5593 40.9162C22.5593 41.5797 22.0064 42.0221 21.4535 42.0221C20.7899 42.0221 20.3476 41.4692 20.3476 40.9162C20.3476 40.3633 20.7899 39.8104 21.4535 39.8104Z" fill="url(#paint9_linear)"/>
<path d="M31.2954 43.7914C32.8435 43.7914 34.06 42.575 34.06 41.0268C34.06 39.4786 32.8435 38.2622 31.2954 38.2622C29.7472 38.2622 28.5307 39.4786 28.5307 41.0268C28.4202 42.4644 29.7472 43.7914 31.2954 43.7914ZM31.2954 39.8104C31.9589 39.8104 32.4012 40.3633 32.4012 40.9162C32.4012 41.5797 31.8483 42.0221 31.2954 42.0221C30.6318 42.0221 30.1895 41.4692 30.1895 40.9162C30.0789 40.3633 30.6318 39.8104 31.2954 39.8104Z" fill="url(#paint10_linear)"/>
<path d="M41.0268 43.7914C42.575 43.7914 43.7914 42.575 43.7914 41.0268C43.7914 39.4786 42.575 38.2622 41.0268 38.2622C39.4786 38.2622 38.2622 39.4786 38.2622 41.0268C38.2622 42.4644 39.4786 43.7914 41.0268 43.7914ZM41.0268 39.8104C41.6903 39.8104 42.1327 40.3633 42.1327 40.9162C42.1327 41.5797 41.5797 42.0221 41.0268 42.0221C40.3633 42.0221 39.921 41.4692 39.921 40.9162C39.921 40.3633 40.4739 39.8104 41.0268 39.8104Z" fill="url(#paint11_linear)"/>
<path d="M50.869 43.7914C52.4172 43.7914 53.6336 42.575 53.6336 41.0268C53.6336 39.4786 52.4172 38.2622 50.869 38.2622C49.3208 38.2622 48.1044 39.4786 48.1044 41.0268C48.1044 42.4644 49.3208 43.7914 50.869 43.7914ZM50.869 39.8104C51.5325 39.8104 51.9748 40.3633 51.9748 40.9162C51.9748 41.5797 51.4219 42.0221 50.869 42.0221C50.2055 42.0221 49.7631 41.4692 49.7631 40.9162C49.7631 40.3633 50.2055 39.8104 50.869 39.8104Z" fill="url(#paint12_linear)"/>
<path d="M26.872 50.9797C28.4202 50.9797 29.6366 49.7632 29.6366 48.2151C29.6366 46.6669 28.4202 45.4504 26.872 45.4504C25.3239 45.4504 24.1074 46.6669 24.1074 48.2151C24.1074 49.7632 25.3239 50.9797 26.872 50.9797ZM26.872 47.1092C27.5355 47.1092 27.9779 47.6621 27.9779 48.2151C27.9779 48.8786 27.425 49.3209 26.872 49.3209C26.3191 49.3209 25.7662 48.768 25.7662 48.2151C25.6556 47.5515 26.2085 47.1092 26.872 47.1092Z" fill="url(#paint13_linear)"/>
<path d="M36.1612 50.9797C37.7094 50.9797 38.9258 49.7632 38.9258 48.2151C38.9258 46.6669 37.7094 45.4504 36.1612 45.4504C34.613 45.4504 33.3966 46.6669 33.3966 48.2151C33.3966 49.7632 34.613 50.9797 36.1612 50.9797ZM36.1612 47.1092C36.8247 47.1092 37.2671 47.6621 37.2671 48.2151C37.2671 48.8786 36.7141 49.3209 36.1612 49.3209C35.4977 49.3209 35.0554 48.768 35.0554 48.2151C35.0554 47.5515 35.4977 47.1092 36.1612 47.1092Z" fill="url(#paint14_linear)"/>
<path d="M42.6855 48.2151C42.6855 49.7632 43.902 50.9797 45.4502 50.9797C46.9983 50.9797 48.2148 49.7632 48.2148 48.2151C48.2148 46.6669 46.9983 45.4504 45.4502 45.4504C43.902 45.4504 42.6855 46.6669 42.6855 48.2151ZM45.4502 47.1092C46.1137 47.1092 46.556 47.6621 46.556 48.2151C46.556 48.8786 46.0031 49.3209 45.4502 49.3209C44.8972 49.3209 44.3443 48.768 44.3443 48.2151C44.3443 47.5515 44.8972 47.1092 45.4502 47.1092Z" fill="url(#paint15_linear)"/>
<path d="M51.9747 48.2151C51.9747 49.7632 53.1912 50.9797 54.7393 50.9797C56.2875 50.9797 57.504 49.7632 57.504 48.2151C57.504 46.6669 56.2875 45.4504 54.7393 45.4504C53.1912 45.4504 51.9747 46.6669 51.9747 48.2151ZM54.8499 47.1092C55.5134 47.1092 55.9558 47.6621 55.9558 48.2151C55.9558 48.8786 55.4029 49.3209 54.8499 49.3209C54.1864 49.3209 53.7441 48.768 53.7441 48.2151C53.6335 47.5515 54.1864 47.1092 54.8499 47.1092Z" fill="url(#paint16_linear)"/>
<path d="M17.4724 50.9797C19.0206 50.9797 20.237 49.7632 20.237 48.2151C20.237 46.6669 19.0206 45.4504 17.4724 45.4504C15.9242 45.4504 14.7078 46.6669 14.7078 48.2151C14.7078 49.7632 15.9242 50.9797 17.4724 50.9797ZM17.4724 47.1092C18.1359 47.1092 18.5782 47.6621 18.5782 48.2151C18.5782 48.8786 18.0253 49.3209 17.4724 49.3209C16.9195 49.3209 16.3665 48.768 16.3665 48.2151C16.3665 47.5515 16.9195 47.1092 17.4724 47.1092Z" fill="url(#paint17_linear)"/>
<path d="M21.3427 52.6384C19.7946 52.6384 18.5781 53.8549 18.5781 55.403C18.5781 56.9512 19.7946 58.1677 21.3427 58.1677C22.8909 58.1677 24.1074 56.9512 24.1074 55.403C24.1074 53.9654 22.8909 52.6384 21.3427 52.6384ZM21.3427 56.6195C20.6792 56.6195 20.2369 56.0665 20.2369 55.5136C20.2369 54.8501 20.7898 54.4078 21.3427 54.4078C22.0062 54.4078 22.4486 54.9607 22.4486 55.5136C22.4486 56.0665 21.8957 56.6195 21.3427 56.6195Z" fill="url(#paint18_linear)"/>
<path d="M12.496 58.2778C14.0442 58.2778 15.2607 57.0613 15.2607 55.5131C15.2607 53.965 14.0442 52.7485 12.496 52.7485C10.9479 52.7485 9.73143 53.965 9.73143 55.5131C9.62084 57.0613 10.9479 58.2778 12.496 58.2778ZM12.496 54.2967C13.1595 54.2967 13.6019 54.8496 13.6019 55.4026C13.6019 56.0661 13.049 56.5084 12.496 56.5084C11.8325 56.5084 11.3902 55.9555 11.3902 55.4026C11.2796 54.8496 11.8325 54.2967 12.496 54.2967Z" fill="url(#paint19_linear)"/>
<path d="M30.1895 52.6384C28.6414 52.6384 27.4249 53.8549 27.4249 55.403C27.4249 56.9512 28.6414 58.1677 30.1895 58.1677C31.7377 58.1677 32.9542 56.9512 32.9542 55.403C32.9542 53.9654 31.7377 52.6384 30.1895 52.6384ZM30.1895 56.6195C29.526 56.6195 29.0837 56.0665 29.0837 55.5136C29.0837 54.8501 29.6366 54.4078 30.1895 54.4078C30.853 54.4078 31.2954 54.9607 31.2954 55.5136C31.2954 56.0665 30.853 56.6195 30.1895 56.6195Z" fill="url(#paint20_linear)"/>
<path d="M39.0363 52.6384C37.4882 52.6384 36.2717 53.8549 36.2717 55.403C36.2717 56.9512 37.4882 58.1677 39.0363 58.1677C40.5845 58.1677 41.801 56.9512 41.801 55.403C41.801 53.9654 40.5845 52.6384 39.0363 52.6384ZM39.0363 56.6195C38.3728 56.6195 37.9305 56.0665 37.9305 55.5136C37.9305 54.8501 38.4834 54.4078 39.0363 54.4078C39.6998 54.4078 40.1422 54.9607 40.1422 55.5136C40.1422 56.0665 39.6998 56.6195 39.0363 56.6195Z" fill="url(#paint21_linear)"/>
<path d="M47.883 52.6384C46.3348 52.6384 45.1184 53.8549 45.1184 55.403C45.1184 56.9512 46.3348 58.1677 47.883 58.1677C49.4312 58.1677 50.6476 56.9512 50.6476 55.403C50.6476 53.9654 49.4312 52.6384 47.883 52.6384ZM47.883 56.6195C47.2195 56.6195 46.7772 56.0665 46.7772 55.5136C46.7772 54.8501 47.3301 54.4078 47.883 54.4078C48.5465 54.4078 48.9889 54.9607 48.9889 55.5136C48.9889 56.0665 48.5465 56.6195 47.883 56.6195Z" fill="url(#paint22_linear)"/>
<path d="M59.8263 58.2778C61.3744 58.2778 62.5909 57.0613 62.5909 55.5131C62.5909 53.965 61.3744 52.7485 59.8263 52.7485C58.2781 52.7485 57.0616 53.965 57.0616 55.5131C57.0616 57.0613 58.2781 58.2778 59.8263 58.2778ZM59.8263 54.2967C60.4898 54.2967 60.9321 54.8496 60.9321 55.4026C60.9321 56.0661 60.3792 56.5084 59.8263 56.5084C59.1628 56.5084 58.7204 55.9555 58.7204 55.4026C58.7204 54.8496 59.2733 54.2967 59.8263 54.2967Z" fill="url(#paint23_linear)"/>
<defs>
<linearGradient id="paint0_linear" x1="36.1611" y1="0" x2="36.1611" y2="70" gradientUnits="userSpaceOnUse">
<stop stop-color="#F9CB40"/>
<stop offset="1" stop-color="#CA2E55"/>
</linearGradient>
<linearGradient id="paint1_linear" x1="48.049" y1="25.5452" x2="48.049" y2="27.2039" gradientUnits="userSpaceOnUse">
<stop stop-color="#F9CB40"/>
<stop offset="1" stop-color="#CA2E55"/>
</linearGradient>
<linearGradient id="paint2_linear" x1="33.4518" y1="25.5452" x2="33.4518" y2="27.2039" gradientUnits="userSpaceOnUse">
<stop stop-color="#F9CB40"/>
<stop offset="1" stop-color="#CA2E55"/>
</linearGradient>
<linearGradient id="paint3_linear" x1="38.3174" y1="25.5452" x2="38.3174" y2="27.2039" gradientUnits="userSpaceOnUse">
<stop stop-color="#F9CB40"/>
<stop offset="1" stop-color="#CA2E55"/>
</linearGradient>
<linearGradient id="paint4_linear" x1="28.5861" y1="25.5452" x2="28.5861" y2="27.2039" gradientUnits="userSpaceOnUse">
<stop stop-color="#F9CB40"/>
<stop offset="1" stop-color="#CA2E55"/>
</linearGradient>
<linearGradient id="paint5_linear" x1="43.1833" y1="25.5452" x2="43.1833" y2="27.2039" gradientUnits="userSpaceOnUse">
<stop stop-color="#F9CB40"/>
<stop offset="1" stop-color="#CA2E55"/>
</linearGradient>
<linearGradient id="paint6_linear" x1="23.7204" y1="25.5452" x2="23.7204" y2="27.2039" gradientUnits="userSpaceOnUse">
<stop stop-color="#F9CB40"/>
<stop offset="1" stop-color="#CA2E55"/>
</linearGradient>
<linearGradient id="paint7_linear" x1="36.1612" y1="11.8325" x2="36.1612" y2="13.4913" gradientUnits="userSpaceOnUse">
<stop stop-color="#F9CB40"/>
<stop offset="1" stop-color="#CA2E55"/>
</linearGradient>
<linearGradient id="paint8_linear" x1="36.1059" y1="16.3665" x2="36.1059" y2="18.0252" gradientUnits="userSpaceOnUse">
<stop stop-color="#F9CB40"/>
<stop offset="1" stop-color="#CA2E55"/>
</linearGradient>
<linearGradient id="paint9_linear" x1="21.4535" y1="38.2622" x2="21.4535" y2="43.7914" gradientUnits="userSpaceOnUse">
<stop stop-color="#F9CB40"/>
<stop offset="1" stop-color="#CA2E55"/>
</linearGradient>
<linearGradient id="paint10_linear" x1="31.2921" y1="38.2622" x2="31.2921" y2="43.7914" gradientUnits="userSpaceOnUse">
<stop stop-color="#F9CB40"/>
<stop offset="1" stop-color="#CA2E55"/>
</linearGradient>
<linearGradient id="paint11_linear" x1="41.0268" y1="38.2622" x2="41.0268" y2="43.7914" gradientUnits="userSpaceOnUse">
<stop stop-color="#F9CB40"/>
<stop offset="1" stop-color="#CA2E55"/>
</linearGradient>
<linearGradient id="paint12_linear" x1="50.869" y1="38.2622" x2="50.869" y2="43.7914" gradientUnits="userSpaceOnUse">
<stop stop-color="#F9CB40"/>
<stop offset="1" stop-color="#CA2E55"/>
</linearGradient>
<linearGradient id="paint13_linear" x1="26.872" y1="45.4504" x2="26.872" y2="50.9797" gradientUnits="userSpaceOnUse">
<stop stop-color="#F9CB40"/>
<stop offset="1" stop-color="#CA2E55"/>
</linearGradient>
<linearGradient id="paint14_linear" x1="36.1612" y1="45.4504" x2="36.1612" y2="50.9797" gradientUnits="userSpaceOnUse">
<stop stop-color="#F9CB40"/>
<stop offset="1" stop-color="#CA2E55"/>
</linearGradient>
<linearGradient id="paint15_linear" x1="45.4502" y1="45.4504" x2="45.4502" y2="50.9797" gradientUnits="userSpaceOnUse">
<stop stop-color="#F9CB40"/>
<stop offset="1" stop-color="#CA2E55"/>
</linearGradient>
<linearGradient id="paint16_linear" x1="54.7393" y1="45.4504" x2="54.7393" y2="50.9797" gradientUnits="userSpaceOnUse">
<stop stop-color="#F9CB40"/>
<stop offset="1" stop-color="#CA2E55"/>
</linearGradient>
<linearGradient id="paint17_linear" x1="17.4724" y1="45.4504" x2="17.4724" y2="50.9797" gradientUnits="userSpaceOnUse">
<stop stop-color="#F9CB40"/>
<stop offset="1" stop-color="#CA2E55"/>
</linearGradient>
<linearGradient id="paint18_linear" x1="21.3427" y1="52.6384" x2="21.3427" y2="58.1677" gradientUnits="userSpaceOnUse">
<stop stop-color="#F9CB40"/>
<stop offset="1" stop-color="#CA2E55"/>
</linearGradient>
<linearGradient id="paint19_linear" x1="12.4928" y1="52.7485" x2="12.4928" y2="58.2778" gradientUnits="userSpaceOnUse">
<stop stop-color="#F9CB40"/>
<stop offset="1" stop-color="#CA2E55"/>
</linearGradient>
<linearGradient id="paint20_linear" x1="30.1895" y1="52.6384" x2="30.1895" y2="58.1677" gradientUnits="userSpaceOnUse">
<stop stop-color="#F9CB40"/>
<stop offset="1" stop-color="#CA2E55"/>
</linearGradient>
<linearGradient id="paint21_linear" x1="39.0363" y1="52.6384" x2="39.0363" y2="58.1677" gradientUnits="userSpaceOnUse">
<stop stop-color="#F9CB40"/>
<stop offset="1" stop-color="#CA2E55"/>
</linearGradient>
<linearGradient id="paint22_linear" x1="47.883" y1="52.6384" x2="47.883" y2="58.1677" gradientUnits="userSpaceOnUse">
<stop stop-color="#F9CB40"/>
<stop offset="1" stop-color="#CA2E55"/>
</linearGradient>
<linearGradient id="paint23_linear" x1="59.8263" y1="52.7485" x2="59.8263" y2="58.2778" gradientUnits="userSpaceOnUse">
<stop stop-color="#F9CB40"/>
<stop offset="1" stop-color="#CA2E55"/>
</linearGradient>
</defs>
</svg>
