<svg width="17" height="17" viewBox="0 0 17 17" fill="none" xmlns="http://www.w3.org/2000/svg">
<path d="M0 1.88071C0 1.33557 0.191447 0.885832 0.574324 0.531505C0.957202 0.177163 1.45496 0 2.06757 0C2.66925 0 3.15604 0.174432 3.52799 0.523328C3.91087 0.883117 4.10232 1.35192 4.10232 1.92977C4.10232 2.4531 3.91635 2.8892 3.5444 3.23809C3.16152 3.59788 2.6583 3.77778 2.03475 3.77778H2.01834C1.41666 3.77778 0.929864 3.59788 0.557915 3.23809C0.185966 2.87831 0 2.42584 0 1.88071ZM0.21332 16.1905V5.26599H3.85618V16.1905H0.21332ZM5.87452 16.1905H9.51737V10.0904C9.51737 9.70882 9.56114 9.41445 9.64865 9.20731C9.8018 8.83661 10.0343 8.52316 10.346 8.26695C10.6578 8.01074 11.0489 7.88264 11.5193 7.88264C12.7445 7.88264 13.3571 8.70578 13.3571 10.3521V16.1905H17V9.92689C17 8.31329 16.6171 7.08947 15.8514 6.25541C15.0856 5.42136 14.0737 5.00433 12.8156 5.00433C11.4044 5.00433 10.305 5.60943 9.51737 6.81962V6.85233H9.50097L9.51737 6.81962V5.26599H5.87452C5.89639 5.61487 5.90734 6.69968 5.90734 8.52044C5.90734 10.3412 5.89639 12.8979 5.87452 16.1905Z" fill="#CA2E55"/>
</svg>
