<svg xmlns="http://www.w3.org/2000/svg" viewBox="0 0 179.76 248.71"><defs><style>.cls-1{fill:none;stroke:#cb2d55;stroke-miterlimit:10;stroke-width:5px;}.cls-2{fill:#00676c;}</style></defs><title>Fichier 2</title><g id="Calque_2" data-name="Calque 2"><g id="Contour"><path class="cls-1" d="M90.61,17C75.61,17,2.5,9.22,2.5,67.67c0,40.87,22,55.38,87.38,55.38,59.19,0,87.38,22.74,87.38,66.19,0,31-15.26,56.85-45.27,56.85,0,0-42.11,3.67-42.11-30.31"/><path class="cls-2" d="M46.19,248.38c-30.18,0-46-16.39-46-32.59H4.78c0,13.93,14.22,28,41.41,28,24.38,0,41.41-11.52,41.41-28V0h4.56V215.79c0,19.19-18.9,32.59-46,32.59"/></g></g></svg>