<svg xmlns="http://www.w3.org/2000/svg" viewBox="0 0 317 385.14"><defs><style>.cls-1{fill:none;stroke:#cb2d55;stroke-miterlimit:10;stroke-width:5px;}.cls-2{fill:#00676c;}.cls-3{fill:#cb2d55;}</style></defs><title>Logo Joellie Sprumont</title><g id="Contour"><path class="cls-1" d="M402.35,310.86c-15,0-88.11-7.76-88.11,50.7,0,40.87,22,55.38,87.38,55.38,59.19,0,87.38,22.74,87.38,66.19,0,31-15.26,56.85-45.27,56.85,0,0-42.11,3.67-42.11-30.31" transform="translate(-174.5 -293.89)"/><path class="cls-2" d="M357.93,542.27c-30.18,0-46-16.39-46-32.59h4.56c0,13.93,14.22,28,41.41,28,24.38,0,41.41-11.52,41.41-28V293.89h4.56V509.68c0,19.19-18.9,32.59-46,32.59" transform="translate(-174.5 -293.89)"/></g><g id="Rempli"><path class="cls-3" d="M234,526.75c-9.87,0-58-5.11-58,33.36,0,26.89,14.47,36.44,57.5,36.44,38.95,0,57.5,15,57.5,43.56,0,20.43-10,37.41-29.79,37.41,0,0-27.71,2.42-27.71-19.94" transform="translate(-174.5 -293.89)"/><path class="cls-2" d="M204.75,679c-19.86,0-30.25-10.79-30.25-21.44h3c0,9.17,9.36,18.44,27.25,18.44,16,0,27.25-7.58,27.25-18.44v-142h3v142c0,12.63-12.44,21.44-30.25,21.44" transform="translate(-174.5 -293.89)"/></g></svg>