<svg width="72" height="71" viewBox="0 0 72 71" fill="none" xmlns="http://www.w3.org/2000/svg">
<path d="M36.7446 4.79111C30.8146 4.79111 1.91211 2.59847 1.91211 19.0714C1.91211 30.5898 10.6094 34.6792 36.456 34.6792C59.8555 34.6792 70.9998 41.088 70.9998 53.3335C70.9998 62.0702 64.9671 69.3556 53.1033 69.3556C53.1033 69.3556 36.456 70.3899 36.456 60.8133" stroke="#CB2D55" stroke-width="1.97486" stroke-miterlimit="10"/>
<path d="M19.1852 70.0009C7.25411 70.0009 1 65.3817 1 60.8161H2.81456C2.81456 64.742 8.43615 68.7073 19.1852 68.7073C28.8233 68.7073 35.5557 65.4607 35.5557 60.8161V0H37.3584V60.8161C37.3584 66.2244 29.8867 70.0009 19.1733 70.0009" fill="#00676C"/>
</svg>
