<svg xmlns="http://www.w3.org/2000/svg" viewBox="0 0 642.81 623.02"><defs><style>.cls-1{opacity:0.35;}.cls-2{fill:#50bfa5;}.cls-3{fill:#3c8f7c;}.cls-4{fill:#355389;}.cls-5{fill:#466eb6;}.cls-6{fill:#b75742;}.cls-7{fill:#f3e8ee;}.cls-8{fill:#86b1f2;}.cls-9{fill:#f47458;}.cls-10{fill:#184655;}.cls-11{fill:#f4cf73;}.cls-12{fill:#f7a491;}.cls-13{fill:#2d232e;}.cls-14{fill:#025454;}.cls-15{fill:#01676b;}.cls-16{fill:#13375b;}.cls-17{fill:#ca2e55;}.cls-18{fill:#db5279;}</style></defs><title>soft-skills-image</title><g id="Calque_2" data-name="Calque 2"><g id="Calque_1-2" data-name="Calque 1"><g class="cls-1"><path class="cls-2" d="M225.29,615.36s-44.41-150.54-48-183.75,21.27-22.91,21.27-22.91-20.89-63.27-5.78-78.29,28.73,13,28.73,13,4.57-76.81,20.68-76.84c30-.05,29.41,83.77,29.41,83.77s7.66-32.82,23.75-23.82c24.23,13.57-10.52,79.33-10.52,79.33s30.88,0,41.71,15.59C346,449.34,225.29,615.36,225.29,615.36Z"/><path class="cls-2" d="M239.84,595.43S111.78,574,83.92,551.33s-.28-32.92-.28-32.92-64.32-33-63.58-55.39,32.7-11,32.7-11-54.19-61.8-41.36-73.53c23.9-21.86,86.53,42.39,86.53,42.39s-18.6-30.55,1-35.38c29.55-7.29,51.36,68,51.36,68s-5.54-29.75,14.85-25.79C201.68,434.82,239.84,595.43,239.84,595.43Z"/><path class="cls-3" d="M165.13,427.72C144.7,424,150.28,453.5,150.28,453.5s-21.81-75.33-51.36-68c-19.59,4.83-1,35.38-1,35.38S35.3,356.6,11.4,378.47l228,217C235.32,574.74,199.37,433.9,165.13,427.72Z"/><path class="cls-4" d="M276.24,613.09s-67.42-68.58-101.38-75.71-27.85,17-27.85,17-67.37-58.92-83-44.65,1.28,28.06,1.28,28.06-56.12-9.93-64.16,8.48C-11.21,574.59,81.08,590,81.08,590s-38.67,2.68-29.69,20.42C64.91,637.14,276.24,613.09,276.24,613.09Z"/><path class="cls-5" d="M1.14,546.29c8-18.41,64.13-8.47,64.13-8.47S48.38,524,64,509.76s80.89,36.63,80.89,36.63S129.49,517,163.45,524.11s112.79,89,112.79,89Z"/><path class="cls-6" d="M603.42,617H230.14c-14.25,0-25.82-12-25.82-26.77V574.34c0-14.79,11.56-26.77,25.82-26.77H603.42a52.89,52.89,0,0,0-.69,68.66Z"/><path class="cls-7" d="M597.66,555.53h-207c-14.25,0-25.82,12-25.82,26.78s11.55,26.77,25.82,26.77H597.67a53.12,53.12,0,0,1,0-53.55Z"/><path class="cls-8" d="M472.28,499.31a1.55,1.55,0,0,0-1.54-2.2H273.23c-15.48,0-28,11.28-28,25.23s12.55,25.23,28,25.23H470.82a1.56,1.56,0,0,0,1.4-.66,1.55,1.55,0,0,0,.27-.76,1.56,1.56,0,0,0-.14-.79,48.33,48.33,0,0,1-.08-46.05Z"/><path class="cls-7" d="M471,501.81H373.15c-18.17,0-32.9,9.46-32.9,21.14s14.73,21.14,32.9,21.14h98.53a48.24,48.24,0,0,1-.65-42.28Z"/><path class="cls-6" d="M445.76,511.85H433c-2.74,0-5,.92-5,2.05v.18h17.71Z"/><path class="cls-9" d="M456.63,517c0-2.85-3.33-5.15-7.43-5.15H432.82c3.12,0,5.64,1.75,5.64,3.91L438.38,571l9-7.12,9.21,7.13Z"/><path class="cls-7" d="M436,495.3H321c-10.19,0-18.45-9.8-18.45-21.9s8.26-21.9,18.45-21.9H436c-8.78,12.14-9.13,30-.82,42.56Z"/><path class="cls-5" d="M302.6,473.39c0-12.1,8.46-21.9,18.89-21.9H438.16a1.14,1.14,0,0,0,0-2.27H253.08c-11.51,0-20.85,10.82-20.85,24.17s9.33,24.17,20.85,24.17H438.16a1.14,1.14,0,0,0,0-2.27H321.49C311.06,495.3,302.6,485.49,302.6,473.39Z"/><path class="cls-10" d="M415.9,462.26H403.13c-2.74,0-5,.9-5,2v.18h17.71Z"/><path class="cls-3" d="M426.77,467.32c0-2.79-3.33-5.06-7.43-5.06H403c3.12,0,5.64,1.72,5.64,3.84l-.08,54.21,9-7,9.22,7Z"/><path class="cls-10" d="M619.08,127.44,636,123l-11.5,153.37-20.36.68,10.27-144a6.23,6.23,0,0,1,4.63-5.58Z"/><path class="cls-11" d="M626.06,280.72a5.48,5.48,0,0,1-1.19,0c-3.37-.4-5.87-3.75-5.57-7.49L630.59,129c.29-3.73,3.26-6.44,6.63-6s5.87,3.75,5.57,7.49L631.51,274.67A6.28,6.28,0,0,1,626.06,280.72Z"/><path class="cls-11" d="M469.92,288.4v.32c.54,5.87,5.08,10.26,10.15,9.8L623.35,285.7c5.08-.45,8.76-5.58,8.23-11.45a5,5,0,0,0-.09-.74Z"/><path class="cls-12" d="M569.69,443.31c-9.38,5.2-38.06-3.92-38.06-4.75-.41,7.84-32.11,84.55-32.11,84.55v23.6s65.32,3.11,64.38-2.66-4.45-2-17.48-12.92c-1.16-1-19.45-5.21-14.5-16C541.91,493.29,563.09,456.92,569.69,443.31Z"/><path class="cls-13" d="M497.4,547.57h71.5c2.58-.26,3.18-2.37,2.27-3.64-1.88-2.63-15.58-8.82-24.79-12.94-16,1.88-44.25-4.29-46.83-8C492.76,532.15,496,547.27,497.4,547.57Z"/><path class="cls-14" d="M481.71,388.23c-1-2.9,61.56-29.44,64.36-26.4,5,5.34-33.85,106-33.85,106l44.53,13.62s46.32-116.3,44.39-137.58-25.14-45.45-75.41-30S481.71,388.23,481.71,388.23Z"/><path class="cls-12" d="M611.18,456.54c-10.56-1.92-24.24-2.47-35.19-2.66,1.29,9.75,7.56,59.76,6.41,62.83A37.52,37.52,0,0,1,567.46,535S616,578.82,619,573.76s-2.17-4.38-5.34-21.07c-.28-1.48-7.3-24.78-7.72-37.35C605,491.35,610.81,469.85,611.18,456.54Z"/><path class="cls-15" d="M595.6,293c-6.77-3.62-24.34-3.74-43.7-2.49a443.66,443.66,0,0,0-110.78,21.74l-24,7.95.08-24.6s-76.34-12.77-79,6.14c-4,28.5,1,86.34,26.4,99.24,79,40.1,189.71-63.88,190.11-50.28.54,18.27,15.94,86.26,19.88,116,11,.19,29.77.18,37.93-1.69C614.13,406.68,614.88,303.24,595.6,293Z"/><path class="cls-13" d="M566,536l54.58,43.6c2.16,1.43,4,.19,4.06-1.37.21-3.22-6.45-16.7-11-25.72-13.6-8.72-31.54-31.47-31.21-35.92C576.68,521.45,565.06,534.86,566,536Z"/><path class="cls-16" d="M321.78,93.37c8.91,39.49,144.34,38.45,119.84,4.95-14.55-19.89,6.23-32.56,5-43.35-1.84-16.76-8-33.41-21.87-45.69C413.54-.66,399.24-2.37,385.11,3,345.06,18,378.62,67.65,321.78,93.37Z"/><path class="cls-17" d="M427.63,149.39a222.62,222.62,0,0,0-12.1-19.7c-6.18-11-22.14-16.54-22.14-16.54s-5.34.11-11.47.41a4.87,4.87,0,0,1-1.16,2c-2.3,1.73-15.51-.51-24,5.29C328.14,145.4,336,264.19,338.32,301.7l87.07.83s-11-80.75,6.72-101.47C444.39,186.62,436.47,165.67,427.63,149.39Z"/><path class="cls-12" d="M388.38,73s-4.79,34.18-8.13,42.49,18.41,26.07,36.45,31.47-5.52-18.35-4.75-27.22,4-50.92,4-50.92Z"/><path class="cls-9" d="M415.06,80.83,416,68.77,388.38,73s-.7,4-1.47,9.7C398.1,89.15,408.16,87.1,415.06,80.83Z"/><path class="cls-12" d="M397,10.54a31.34,31.34,0,0,0-17.59,12.7c-6.71,10.24-11.32,40.38,10.79,54.49s39.32-5.87,39.61-25.26S426,7.13,397,10.54Z"/><path class="cls-12" d="M434.85,46.36c1.89-4.69,1.2-9.38-1.53-10.48s-6.47,1.81-8.36,6.5-1.2,9.38,1.53,10.48S433,51,434.85,46.36Z"/><path class="cls-16" d="M400.3,9.91s-13.86,31.07-26,33.86-12,18.41-12,18.41.27-36.13,11.69-44.42S400.3,9.91,400.3,9.91Z"/><path class="cls-12" d="M375.81,61.29c3.41-1.08,4.88-6.05,3.28-11.1S373.42,41.93,370,43s-4.88,6.05-3.28,11.1S372.4,62.38,375.81,61.29Z"/><path class="cls-12" d="M534.83,274.7c-5.22-1.89-13-2.12-12.87-2.81.52-2.79,23.6,6.16,20.49,2.09-1.73-2.27-19-10.3-23.21-9s-30.82,8.79-30.82,8.79l-73.1-17.14s-18.46-41.93-20.25-77.92c-15.26,2.06-25.63,5.83-38.89,13.19,6.39,34.44,21.93,90.29,39.11,100.76,7.25,4.38,93.5-5.29,93.5-5.29s19-1.34,22.12-2.53c2.38-.91,8.42-4.32,11.72-5.26,7.5-2.13,20.87,3.21,20.91,1.74C543.56,280.27,540.17,276.63,534.83,274.7Z"/><path class="cls-18" d="M395.52,140.22c-.7-11.09-4.9-21.79-16.7-25.24-7.31-2.14-15.51-.1-21.38,4.68-6.95,5.68-8.91,14.78-8.86,23.4.07,19.59,1.41,39.85,5,59.12,13.25-7.36,28.73-11.78,44-13.84C397.57,188.24,396.45,154.87,395.52,140.22Z"/><path class="cls-9" d="M504.78,402.26h-294a16.54,16.54,0,0,0-16.54,16.54V432.7a16.54,16.54,0,0,0,16.54,16.54h294l-.15-.16a33.67,33.67,0,0,1,.15-46.82Z"/><path class="cls-7" d="M499.58,409.21H342.37a16.54,16.54,0,0,0,0,33.07h157.2a33.72,33.72,0,0,1,0-33.07Z"/></g></g></g></svg>