<svg width="90" height="63" viewBox="0 0 90 63" fill="none" xmlns="http://www.w3.org/2000/svg">
<path d="M84.9238 52.6829V0H4.80183V52.6829H0V56.7988L3.84146 62.1494H86.1585L90 56.7988V52.6829H84.9238ZM82.8659 2.05793V7.95732H6.85976V2.05793H82.8659ZM6.85976 10.1524H82.8659V52.6829H6.85976V10.1524ZM87.8049 56.1128L85.061 59.9543H4.80183L2.05793 56.1128V54.7409H4.80183H87.8049V56.1128Z" fill="url(#paint0_linear)"/>
<path d="M54.7407 26.067L62.2865 32.378L54.7407 38.5518L55.9755 40.1981L65.5791 32.378L55.9755 24.4207L54.7407 26.067Z" fill="url(#paint1_linear)"/>
<path d="M33.7501 24.4207L24.1465 32.378L33.7501 40.1981L34.9849 38.5518L27.4392 32.378L34.9849 26.067L33.7501 24.4207Z" fill="url(#paint2_linear)"/>
<path d="M37.1011 45.845L38.946 46.7568L52.8064 18.7139L50.9615 17.802L37.1011 45.845Z" fill="url(#paint3_linear)"/>
<path d="M11.9361 3.97852H9.87817V6.03644H11.9361V3.97852Z" fill="url(#paint4_linear)"/>
<path d="M20.9908 3.97852H18.9329V6.03644H20.9908V3.97852Z" fill="url(#paint5_linear)"/>
<path d="M16.4634 3.97852H14.4055V6.03644H16.4634V3.97852Z" fill="url(#paint6_linear)"/>
<defs>
<linearGradient id="paint0_linear" x1="45" y1="0" x2="45" y2="62.1494" gradientUnits="userSpaceOnUse">
<stop stop-color="#F9CB40"/>
<stop offset="1" stop-color="#CA2E55"/>
</linearGradient>
<linearGradient id="paint1_linear" x1="60.1599" y1="24.4207" x2="60.1599" y2="40.1981" gradientUnits="userSpaceOnUse">
<stop stop-color="#F9CB40"/>
<stop offset="1" stop-color="#CA2E55"/>
</linearGradient>
<linearGradient id="paint2_linear" x1="29.5657" y1="24.4207" x2="29.5657" y2="40.1981" gradientUnits="userSpaceOnUse">
<stop stop-color="#F9CB40"/>
<stop offset="1" stop-color="#CA2E55"/>
</linearGradient>
<linearGradient id="paint3_linear" x1="38.0236" y1="46.3009" x2="51.884" y2="18.2579" gradientUnits="userSpaceOnUse">
<stop stop-color="#F9CB40"/>
<stop offset="1" stop-color="#CA2E55"/>
</linearGradient>
<linearGradient id="paint4_linear" x1="10.9071" y1="3.97852" x2="10.9071" y2="6.03644" gradientUnits="userSpaceOnUse">
<stop stop-color="#F9CB40"/>
<stop offset="1" stop-color="#CA2E55"/>
</linearGradient>
<linearGradient id="paint5_linear" x1="19.9618" y1="3.97852" x2="19.9618" y2="6.03644" gradientUnits="userSpaceOnUse">
<stop stop-color="#F9CB40"/>
<stop offset="1" stop-color="#CA2E55"/>
</linearGradient>
<linearGradient id="paint6_linear" x1="15.4345" y1="3.97852" x2="15.4345" y2="6.03644" gradientUnits="userSpaceOnUse">
<stop stop-color="#F9CB40"/>
<stop offset="1" stop-color="#CA2E55"/>
</linearGradient>
</defs>
</svg>
